<?xml version="1.0" standalone="no"?>
<!DOCTYPE svg PUBLIC "-//W3C//DTD SVG 20010904//EN"
 "http://www.w3.org/TR/2001/REC-SVG-20010904/DTD/svg10.dtd">
<svg version="1.0" xmlns="http://www.w3.org/2000/svg"
 width="1600.000000pt" height="1600.000000pt" viewBox="0 0 1600.000000 1600.000000"
 preserveAspectRatio="xMidYMid meet">
<metadata>
Created by potrace 1.14, written by Peter Selinger 2001-2017
</metadata>
<g transform="translate(0.000000,1600.000000) scale(0.100000,-0.100000)"
fill="#000000" stroke="none">
<path d="M7880 11917 c-83 -16 -335 -66 -375 -73 -22 -4 -44 -8 -50 -9 -5 -2
-26 -5 -45 -9 -74 -12 -95 -17 -109 -22 -8 -2 -30 -7 -50 -10 -20 -2 -47 -7
-61 -10 -43 -10 -87 -18 -160 -28 -14 -2 -43 -8 -65 -14 -22 -6 -60 -13 -85
-16 -79 -10 -85 -11 -90 -17 -3 -3 -36 -11 -75 -17 -105 -16 -244 -41 -295
-52 -25 -5 -56 -12 -70 -14 -14 -3 -36 -8 -50 -11 -14 -3 -41 -8 -60 -11 -19
-3 -48 -8 -65 -11 -16 -3 -36 -6 -42 -6 -7 0 -13 -4 -13 -9 0 -5 -4 -7 -9 -3
-5 3 -31 0 -58 -6 -48 -10 -86 -17 -133 -24 -14 -2 -25 -4 -25 -5 0 -2 -50
-13 -120 -25 -16 -3 -54 -10 -83 -16 -30 -6 -56 -8 -59 -5 -3 3 -15 0 -27 -6
-11 -7 -24 -11 -28 -10 -4 1 -36 -5 -70 -12 -35 -8 -83 -18 -108 -21 -25 -3
-53 -8 -62 -11 -22 -6 -55 -13 -98 -20 -19 -3 -48 -9 -65 -13 -16 -4 -42 -7
-58 -7 -33 2 -36 -6 -34 -106 0 -65 3 -77 19 -81 10 -3 18 -2 18 2 0 4 10 7
23 8 12 1 33 4 47 7 63 15 86 19 105 21 11 1 47 7 80 15 33 7 74 14 90 14 17
1 36 5 43 10 7 4 29 10 50 12 72 9 87 11 117 18 51 11 79 16 115 22 37 5 69
11 110 20 14 3 36 7 50 9 14 2 48 9 75 14 28 6 59 12 70 14 11 3 42 8 68 11
27 4 57 9 68 12 10 2 27 6 38 8 10 2 34 7 52 10 19 3 45 8 59 11 62 12 147 28
165 29 11 1 29 5 40 9 24 8 67 16 120 22 22 3 60 10 85 15 25 6 59 12 75 14
31 5 64 12 93 20 9 3 42 8 72 11 30 4 58 9 62 11 8 5 101 22 163 30 22 3 56 9
75 14 19 5 51 11 70 14 19 3 46 8 60 11 14 3 36 7 50 10 14 2 48 9 75 15 28 6
64 12 80 14 37 5 100 16 129 22 102 22 164 31 181 28 45 -9 81 -16 100 -19 11
-1 48 -8 82 -14 35 -6 73 -13 85 -15 13 -2 111 -21 218 -41 107 -20 206 -39
220 -41 14 -2 59 -11 100 -18 41 -8 93 -17 115 -21 52 -9 74 -13 105 -21 26
-6 36 -8 110 -19 24 -4 48 -9 51 -11 4 -2 27 -7 50 -10 24 -3 53 -7 64 -9 11
-1 20 -3 20 -4 0 -1 11 -4 25 -6 14 -2 39 -6 55 -10 17 -4 45 -8 62 -9 18 0
33 -3 33 -6 0 -3 8 -6 18 -7 9 -1 31 -4 47 -8 17 -4 44 -8 60 -11 17 -2 41 -7
55 -10 14 -4 34 -8 45 -9 11 -2 49 -8 85 -15 36 -7 75 -14 87 -15 12 -2 34 -6
50 -9 36 -8 65 -14 133 -26 30 -5 71 -12 90 -16 19 -3 40 -7 45 -8 11 -3 63
-13 110 -21 17 -3 48 -8 69 -11 22 -3 44 -8 48 -10 5 -3 25 -8 46 -10 42 -5
64 -9 136 -23 28 -6 62 -13 76 -15 14 -3 36 -8 50 -11 14 -3 45 -8 70 -11 l45
-6 1 91 c0 85 -1 91 -20 92 -12 0 -29 2 -40 4 -168 32 -318 61 -386 76 -47 11
-103 21 -125 24 -38 4 -80 12 -80 15 0 1 -16 3 -35 5 -19 2 -44 6 -55 8 -30 8
-226 48 -255 52 -14 2 -38 6 -55 9 -16 3 -39 8 -50 10 -11 2 -36 7 -55 10 -57
10 -143 27 -170 33 -30 7 -47 10 -120 23 -76 13 -260 48 -290 55 -14 4 -36 8
-50 10 -76 10 -97 14 -120 22 -14 5 -34 8 -45 8 -11 -1 -26 3 -32 8 -7 5 -13
7 -13 4 0 -3 -19 0 -42 5 -46 10 -62 14 -118 22 -19 3 -46 8 -60 12 -14 3 -36
7 -50 9 -14 2 -47 8 -75 14 -27 5 -86 16 -130 24 -44 8 -125 24 -179 36 -55
12 -101 19 -103 17 -3 -2 -19 0 -36 5 -47 14 -116 17 -167 6z"/>
<path d="M7928 11561 c-1 -5 -16 -11 -33 -14 -74 -12 -162 -27 -185 -32 -93
-17 -162 -27 -205 -31 -27 -3 -59 -9 -70 -14 -11 -5 -47 -12 -80 -16 -67 -8
-78 -10 -85 -13 -3 -2 -18 -4 -35 -6 -16 -2 -46 -7 -65 -10 -19 -3 -46 -7 -60
-9 -14 -2 -25 -4 -25 -5 0 -4 -57 -12 -90 -14 -16 0 -32 -4 -35 -8 -3 -4 -32
-10 -65 -14 -33 -4 -76 -9 -95 -12 -19 -3 -49 -6 -65 -7 -17 -2 -47 -9 -68
-15 -21 -7 -41 -10 -44 -7 -3 3 -14 1 -24 -5 -10 -5 -40 -12 -66 -15 -73 -10
-88 -12 -88 -14 0 -1 -13 -4 -30 -6 -16 -3 -57 -10 -90 -15 -33 -6 -73 -12
-90 -13 -16 -2 -32 -4 -35 -5 -3 -1 -25 -5 -49 -7 -25 -3 -52 -9 -60 -13 -9
-4 -44 -7 -78 -7 -44 1 -63 -3 -63 -11 0 -8 -14 -13 -32 -14 -18 0 -42 -3 -53
-6 -11 -2 -35 -5 -52 -6 -18 -1 -33 -4 -33 -7 0 -3 -8 -6 -17 -7 -36 -3 -98
-11 -98 -13 0 -2 -13 -4 -30 -6 -16 -2 -41 -5 -55 -8 -14 -3 -39 -7 -57 -10
-18 -2 -36 -7 -41 -10 -4 -2 -30 -7 -58 -10 -57 -6 -99 -13 -171 -27 -29 -6
-57 -8 -62 -5 -5 3 -11 0 -14 -8 -3 -8 -14 -12 -24 -10 -10 3 -30 1 -44 -5
l-26 -9 3 -244 c1 -133 5 -371 8 -528 3 -157 8 -454 12 -660 12 -737 12 -729
29 -915 6 -76 9 -97 20 -195 11 -90 11 -90 34 -235 12 -71 31 -175 43 -230 11
-55 22 -109 23 -120 2 -11 13 -58 25 -105 12 -47 23 -92 25 -100 2 -8 9 -35
16 -60 7 -25 14 -54 16 -65 6 -32 43 -157 59 -200 9 -22 16 -42 15 -45 -1 -12
83 -261 112 -330 5 -14 11 -29 13 -35 6 -25 67 -171 76 -182 6 -7 7 -13 4 -13
-4 0 1 -17 12 -37 43 -87 64 -132 63 -138 -5 -17 294 -572 328 -612 6 -7 11
-15 11 -18 0 -12 157 -245 249 -370 119 -161 98 -135 232 -294 118 -141 124
-147 274 -301 150 -154 374 -357 480 -436 22 -16 45 -34 50 -40 13 -15 221
-166 315 -229 41 -27 77 -52 80 -55 8 -8 42 -29 78 -47 17 -9 32 -20 32 -25 0
-4 4 -8 10 -8 5 0 35 -16 66 -36 l57 -37 36 19 c171 90 587 385 787 559 12 11
51 45 86 75 86 75 392 381 460 460 31 36 70 81 86 100 105 120 341 437 407
547 11 18 45 72 75 120 61 98 68 109 91 150 91 163 120 217 183 347 101 208
116 241 116 252 0 5 7 22 16 39 8 16 27 59 41 95 14 36 31 79 38 95 21 48 141
394 151 435 2 8 26 95 53 192 27 97 52 189 55 205 3 15 10 46 15 68 5 22 12
51 15 65 4 23 19 94 31 150 2 13 7 42 10 65 3 22 8 47 11 56 3 10 7 31 9 48 3
17 7 44 9 59 5 37 26 177 32 221 2 18 6 63 9 100 3 36 8 82 11 101 8 54 15
205 19 410 3 173 5 316 20 1335 3 215 8 432 10 484 4 86 3 93 -15 98 -11 3
-20 9 -20 12 0 4 -13 6 -30 3 -16 -2 -30 0 -30 5 0 5 -17 9 -37 9 -21 0 -55 4
-77 8 -21 4 -48 10 -60 12 -11 2 -41 7 -66 10 -25 3 -54 8 -65 11 -21 7 -25 8
-85 17 -19 3 -51 9 -70 12 -19 4 -48 8 -65 9 -16 2 -30 4 -30 5 0 4 -64 13
-169 26 -22 2 -42 8 -45 12 -4 4 -19 8 -36 9 -16 1 -68 8 -115 16 -47 9 -88
13 -92 10 -5 -2 -8 0 -8 6 0 5 -15 10 -32 9 -18 0 -60 5 -93 12 -33 6 -73 13
-90 14 -16 2 -46 6 -65 10 -19 4 -48 9 -65 11 -16 2 -30 4 -30 5 0 3 -39 10
-65 13 -14 2 -30 6 -37 10 -6 4 -22 7 -34 7 -26 -1 -74 6 -74 10 0 2 -7 3 -85
13 -72 9 -148 23 -152 27 -2 1 -19 4 -38 6 -62 7 -85 11 -101 18 -9 4 -20 6
-25 5 -5 -1 -11 0 -14 1 -3 1 -18 4 -35 5 -16 2 -30 4 -30 5 0 2 -16 4 -35 6
-70 8 -115 17 -126 25 -7 5 -25 9 -40 8 -32 -1 -50 2 -209 30 -60 11 -128 23
-150 27 -22 4 -53 8 -70 10 -46 3 -47 3 -40 14 4 6 -6 10 -24 10 -16 0 -31 -4
-33 -9z"/>
</g>
</svg>
