<?xml version="1.0" standalone="no"?>
<!DOCTYPE svg PUBLIC "-//W3C//DTD SVG 20010904//EN"
 "http://www.w3.org/TR/2001/REC-SVG-20010904/DTD/svg10.dtd">
<svg version="1.0" xmlns="http://www.w3.org/2000/svg"
 width="768.000000pt" height="768.000000pt" viewBox="0 0 768.000000 768.000000"
 preserveAspectRatio="xMidYMid meet">
<metadata>
Created by potrace 1.14, written by Peter Selinger 2001-2017
</metadata>
<g transform="translate(0.000000,768.000000) scale(0.100000,-0.100000)"
fill="#000000" stroke="none">
<path d="M3495 7669 c-733 -73 -1381 -323 -1960 -755 -154 -115 -269 -215
-425 -373 -636 -642 -1012 -1451 -1100 -2371 -16 -170 -5 -648 19 -826 124
-913 553 -1736 1217 -2338 616 -559 1331 -882 2184 -988 166 -20 691 -17 865
5 883 115 1645 486 2260 1102 315 315 535 623 735 1030 194 394 309 782 367
1230 25 198 25 710 0 910 -127 995 -603 1870 -1365 2504 -562 468 -1226 754
-1987 857 -132 18 -676 27 -810 13z m199 -476 c-2 -10 -98 -684 -214 -1498
-116 -814 -212 -1490 -215 -1502 -3 -14 -106 -101 -283 -240 -152 -120 -311
-245 -353 -278 -109 -86 -79 -62 -963 -757 -446 -351 -814 -638 -817 -638 -3
0 -27 46 -54 102 -173 370 -271 724 -315 1138 -15 139 -15 485 0 635 67 677
312 1279 737 1810 89 111 326 356 418 433 377 312 735 513 1158 651 192 62
435 118 587 136 30 3 87 10 125 14 39 5 98 9 132 10 53 1 61 -1 57 -16z m566
-3 c1140 -141 2140 -868 2635 -1915 113 -238 203 -514 254 -778 26 -136 36
-200 57 -397 8 -76 8 -429 0 -520 -38 -430 -139 -807 -318 -1189 -27 -58 -50
-107 -52 -109 -2 -2 -330 252 -728 564 -397 312 -927 727 -1177 923 -249 196
-468 369 -486 386 l-33 30 -212 1495 c-116 822 -214 1504 -217 1514 -5 18 0
19 93 13 55 -4 137 -11 184 -17z m264 -4291 c369 -149 1007 -406 1418 -571
l747 -300 -48 -72 c-341 -503 -823 -916 -1363 -1169 -365 -171 -714 -265
-1168 -312 -95 -10 -460 -7 -575 5 -236 24 -414 57 -625 117 -756 214 -1424
700 -1872 1361 -48 71 -49 72 -26 81 20 8 776 311 2308 927 278 112 511 203
519 204 7 0 315 -122 685 -271z"/>
</g>
</svg>
